<svg width="40" height="40" viewBox="0 0 40 40" fill="none" xmlns="http://www.w3.org/2000/svg">
<path d="M26.1703 11.9079H14.696V10.2236H26.1703C26.3881 10.2236 26.5968 10.3119 26.7508 10.469C26.9047 10.6261 26.9912 10.8391 26.9912 11.0613C26.9912 11.2843 26.905 11.4983 26.7513 11.6568C26.5976 11.8153 26.3889 11.9056 26.1703 11.9079Z" fill="black"/>
<path d="M26.1703 12.3402H14.2371V9.77319H26.1703C26.488 9.80028 26.7841 9.94818 26.9999 10.1876C27.2157 10.427 27.3355 10.7404 27.3355 11.0657C27.3355 11.391 27.2157 11.7044 26.9999 11.9438C26.7841 12.1832 26.488 12.3311 26.1703 12.3582V12.3402ZM15.1197 11.4395H26.1703C26.2718 11.4371 26.3683 11.3943 26.4393 11.3203C26.5102 11.2462 26.5499 11.1467 26.5499 11.0432C26.5499 10.9405 26.5099 10.8419 26.4387 10.7693C26.3675 10.6967 26.271 10.6559 26.1703 10.6559H15.1197V11.4395Z" fill="black"/>
<path d="M28.2181 16.5466H14.6785V14.8623H28.2181C28.4382 14.8623 28.6492 14.9515 28.8048 15.1103C28.9604 15.2691 29.0478 15.4844 29.0478 15.709C29.0455 15.9319 28.9571 16.145 28.8017 16.3018C28.6464 16.4587 28.4367 16.5466 28.2181 16.5466Z" fill="black"/>
<path d="M28.2181 16.9967H14.2371V14.4117H28.2181C28.3933 14.3968 28.5696 14.4191 28.736 14.4773C28.9023 14.5355 29.055 14.6282 29.1844 14.7497C29.3138 14.8712 29.4171 15.0187 29.4877 15.183C29.5584 15.3473 29.5949 15.5248 29.5949 15.7042C29.5949 15.8837 29.5584 16.0611 29.4877 16.2254C29.4171 16.3897 29.3138 16.5373 29.1844 16.6588C29.055 16.7802 28.9023 16.873 28.736 16.9312C28.5696 16.9893 28.3933 17.0117 28.2181 16.9967ZM15.1197 16.096H28.2181C28.3195 16.0961 28.417 16.0555 28.4896 15.9832C28.5622 15.9108 28.6041 15.8123 28.6064 15.7087C28.6064 15.6036 28.5655 15.5028 28.4927 15.4285C28.4198 15.3542 28.3211 15.3124 28.2181 15.3124H15.1197V16.096Z" fill="black"/>
<path d="M26.1703 21.2122H14.696V19.5459H26.1703C26.3881 19.5459 26.5968 19.6341 26.7508 19.7912C26.9047 19.9483 26.9912 20.1614 26.9912 20.3835C26.9889 20.6041 26.9014 20.8149 26.7477 20.97C26.594 21.1252 26.3865 21.2122 26.1703 21.2122Z" fill="black"/>
<path d="M26.1703 21.6624H14.2371V19.0864H26.1703C26.5051 19.0864 26.8261 19.2221 27.0628 19.4637C27.2995 19.7052 27.4325 20.0328 27.4325 20.3744C27.4325 20.716 27.2995 21.0436 27.0628 21.2852C26.8261 21.5267 26.5051 21.6624 26.1703 21.6624ZM15.1197 20.7617H26.1703C26.271 20.7617 26.3675 20.7209 26.4387 20.6483C26.5099 20.5756 26.5499 20.4771 26.5499 20.3744C26.5499 20.2717 26.5099 20.1732 26.4387 20.1006C26.3675 20.0279 26.271 19.9871 26.1703 19.9871H15.1197V20.7617Z" fill="black"/>
<path d="M30.3806 24.7158H14.599C14.4135 24.7158 14.2299 24.753 14.0586 24.8255C13.8872 24.8979 13.7315 25.004 13.6004 25.1379C13.4693 25.2717 13.3652 25.4305 13.2943 25.6054C13.2233 25.7802 13.1868 25.9676 13.1868 26.1569V28.5527C13.1868 29.0854 13.3942 29.5963 13.7633 29.973C14.1324 30.3497 14.633 30.5613 15.1551 30.5613H16.0377V28.886H15.1551C15.1104 28.8898 15.0655 28.884 15.0232 28.8688C14.9809 28.8537 14.9422 28.8296 14.9097 28.7981C14.8772 28.7666 14.8516 28.7285 14.8346 28.6862C14.8175 28.6439 14.8094 28.5984 14.8108 28.5527V26.3911H15.0138C16.0144 26.4287 16.9645 26.8489 17.6756 27.5683C18.3866 28.2876 18.8066 29.2535 18.8522 30.2742C18.8978 31.2948 18.5656 32.2957 17.9215 33.078C17.2775 33.8603 16.3688 34.367 15.3757 34.4973H12.8337C12.424 34.495 12.0315 34.3284 11.7409 34.0336C11.4503 33.7388 11.2849 33.3392 11.2803 32.9211V11.3044C11.2815 11.1148 11.2457 10.9269 11.1752 10.7515C11.1046 10.5761 11.0006 10.4168 10.8693 10.2827C10.7379 10.1487 10.5817 10.0426 10.4099 9.97057C10.238 9.89857 10.0538 9.86211 9.86806 9.86331H7.98804V11.5656H9.65622V32.9211C9.65622 33.781 9.991 34.6058 10.5869 35.2139C11.1828 35.822 11.991 36.1636 12.8337 36.1636H30.3806C31.1359 36.1942 31.8895 36.0688 32.5962 35.7949C33.3029 35.521 33.948 35.1043 34.4931 34.5698C35.0381 34.0353 35.4717 33.3939 35.7679 32.6842C36.064 31.9745 36.2167 31.2111 36.2167 30.4397C36.2167 29.6683 36.064 28.9049 35.7679 28.1951C35.4717 27.4854 35.0381 26.8441 34.4931 26.3096C33.948 25.775 33.3029 25.3583 32.5962 25.0845C31.8895 24.8106 31.1359 24.6852 30.3806 24.7158ZM30.3806 34.4883H19.0034C20.0442 33.4032 20.6226 31.9424 20.6127 30.424C20.6028 28.9057 20.0053 27.4529 18.9504 26.382H30.4247C31.4781 26.382 32.4884 26.8091 33.2333 27.5692C33.9781 28.3293 34.3966 29.3602 34.3966 30.4352C34.3966 31.5101 33.9781 32.5411 33.2333 33.3012C32.4884 34.0613 31.4781 34.4883 30.4247 34.4883H30.3806Z" fill="black"/>
<path d="M30.3805 36.6591H12.8336C11.8746 36.6568 10.9555 36.2669 10.2773 35.5749C9.59916 34.8829 9.21715 33.945 9.21482 32.9663V12.0161H7.54663V9.43115H9.85914C10.1026 9.43115 10.3436 9.48008 10.5685 9.57513C10.7933 9.67019 10.9977 9.80951 11.1698 9.98515C11.3419 10.1608 11.4784 10.3693 11.5716 10.5988C11.6647 10.8283 11.7127 11.0742 11.7127 11.3226V32.9393C11.7127 33.0895 11.7417 33.2382 11.798 33.377C11.8543 33.5158 11.9369 33.6419 12.041 33.7481C12.1451 33.8543 12.2687 33.9386 12.4047 33.9961C12.5407 34.0536 12.6864 34.0832 12.8336 34.0832H15.4021C16.3385 34.0664 17.23 33.6708 17.8805 32.9833C18.531 32.2959 18.8873 31.3728 18.8709 30.4173C18.8545 29.4618 18.4668 28.5521 17.7931 27.8882C17.1194 27.2244 16.2149 26.8609 15.2785 26.8776V28.4538H16.5231V31.0388H15.155C14.8363 31.0388 14.5208 30.9743 14.2267 30.8491C13.9326 30.7238 13.6658 30.5403 13.4417 30.3091C13.2176 30.0779 13.0407 29.8036 12.9211 29.5022C12.8016 29.2007 12.7419 28.8781 12.7454 28.5529V26.157C12.7477 25.6561 12.9437 25.1764 13.2908 24.8222C13.6379 24.468 14.108 24.268 14.5989 24.2656H30.3805C31.1945 24.2339 32.0064 24.3701 32.7676 24.6661C33.5288 24.962 34.2237 25.4117 34.8106 25.9882C35.3975 26.5647 35.8644 27.256 36.1833 28.021C36.5022 28.7859 36.6665 29.6086 36.6665 30.4398C36.6665 31.2711 36.5022 32.0938 36.1833 32.8587C35.8644 33.6237 35.3975 34.315 34.8106 34.8915C34.2237 35.468 33.5288 35.9177 32.7676 36.2136C32.0064 36.5096 31.1945 36.6458 30.3805 36.6141V36.6591ZM15.9229 35.7584H30.3805C31.0771 35.7878 31.7724 35.6732 32.4245 35.4214C33.0766 35.1696 33.672 34.7859 34.1751 34.2933C34.6782 33.8007 35.0785 33.2094 35.352 32.555C35.6254 31.9005 35.7664 31.1964 35.7664 30.4849C35.7664 29.7734 35.6254 29.0693 35.352 28.4148C35.0785 27.7603 34.6782 27.169 34.1751 26.6764C33.672 26.1838 33.0766 25.8001 32.4245 25.5483C31.7724 25.2966 31.0771 25.1819 30.3805 25.2113H14.5989C14.3414 25.2113 14.0945 25.3157 13.9124 25.5015C13.7303 25.6873 13.628 25.9393 13.628 26.2021V28.5529C13.6303 28.9654 13.7919 29.3604 14.0778 29.6521C14.3637 29.9438 14.7507 30.1087 15.155 30.1111H15.6404V29.3275H15.155C14.9537 29.3275 14.7606 29.2459 14.6182 29.1006C14.4759 28.9554 14.3959 28.7583 14.3959 28.5529V25.9409H15.4816C16.652 25.9409 17.7745 26.4154 18.6022 27.2599C19.4298 28.1045 19.8947 29.25 19.8947 30.4444C19.8947 31.6387 19.4298 32.7842 18.6022 33.6288C17.7745 34.4733 16.652 34.9478 15.4816 34.9478H12.8336C12.3023 34.9478 11.7926 34.7324 11.4169 34.349C11.0411 33.9655 10.83 33.4455 10.83 32.9032V11.2866C10.83 11.0238 10.7278 10.7718 10.5457 10.586C10.3636 10.4002 10.1166 10.2958 9.85914 10.2958H8.42927V11.0794H10.0975V32.9213C10.0975 33.6618 10.3857 34.372 10.8989 34.8956C11.412 35.4192 12.108 35.7134 12.8336 35.7134L15.9229 35.7584ZM30.3805 34.9838H17.9441L18.6855 34.2093C19.6456 33.2126 20.1798 31.8686 20.1716 30.4711C20.1633 29.0736 19.6132 27.7363 18.6414 26.7515L17.8823 25.9769H30.3805C31.5509 25.9769 32.6735 26.4514 33.5011 27.2959C34.3287 28.1405 34.7937 29.286 34.7937 30.4804C34.7937 31.6748 34.3287 32.8202 33.5011 33.6648C32.6735 34.5094 31.5509 34.9838 30.3805 34.9838ZM19.9389 34.0832H30.3805C31.3169 34.0832 32.2149 33.7036 32.877 33.0279C33.5391 32.3523 33.911 31.4359 33.911 30.4804C33.911 29.5249 33.5391 28.6085 32.877 27.9328C32.2149 27.2572 31.3169 26.8776 30.3805 26.8776H19.9124C20.646 27.9298 21.0402 29.1891 21.0402 30.4804C21.0402 31.7717 20.646 33.031 19.9124 34.0832H19.9389Z" fill="black"/>
<path d="M30.4953 3.81958H11.2802C9.72559 3.92836 8.2353 4.49529 6.99023 5.45155C5.74517 6.40781 4.79887 7.7123 4.26618 9.20669C3.73349 10.7011 3.63731 12.3211 3.98931 13.8702C4.34132 15.4193 5.12638 16.8308 6.24921 17.9335C6.33922 18.0197 6.44712 18.084 6.56488 18.1218C6.68265 18.1596 6.80724 18.1697 6.92939 18.1515C7.05154 18.1334 7.16809 18.0873 7.27039 18.0168C7.37268 17.9463 7.45807 17.8532 7.52021 17.7443C7.6168 17.5842 7.65718 17.3954 7.63473 17.2088C7.61228 17.0222 7.52832 16.849 7.39664 16.7175C6.72709 16.0657 6.20491 15.2727 5.86649 14.3938C5.52807 13.5149 5.38157 12.5712 5.43718 11.6286C5.53219 10.0624 6.17372 8.5827 7.24558 7.45753C8.31744 6.33235 9.74874 5.63609 11.2802 5.49487H14.193H30.4953C30.9073 5.49487 31.3024 5.66189 31.5937 5.95917C31.8851 6.25646 32.0487 6.65967 32.0487 7.08009V23.3827C32.6112 23.5179 33.1541 23.7268 33.664 24.0041V7.05307C33.664 6.1955 33.3301 5.37305 32.7359 4.76665C32.1416 4.16025 31.3357 3.81958 30.4953 3.81958Z" fill="black"/>
<path d="M34.1141 24.7247L33.4609 24.3735C32.9789 24.1188 32.4694 23.9224 31.9428 23.788L31.5809 23.707V7.05312C31.5809 6.75213 31.4638 6.46347 31.2552 6.25064C31.0466 6.03781 30.7638 5.91824 30.4688 5.91824L11.2802 5.94527C10.1453 6.05921 9.06633 6.50314 8.17134 7.22433C7.27636 7.94552 6.60301 8.91368 6.23125 10.0138C5.8595 11.114 5.80496 12.2999 6.07412 13.4307C6.34328 14.5615 6.92482 15.5898 7.74969 16.3933C7.97886 16.6351 8.10702 16.9583 8.10711 17.2947C8.1072 17.6311 7.97922 17.9543 7.75017 18.1962C7.52112 18.4382 7.20892 18.5798 6.87947 18.5913C6.55002 18.6028 6.22909 18.4832 5.98441 18.2578C4.78479 17.099 3.94283 15.608 3.56189 13.9678C3.18095 12.3276 3.27761 10.6096 3.84001 9.02471C4.4024 7.43979 5.40605 6.05693 6.72776 5.04588C8.04946 4.03484 9.6317 3.4396 11.2802 3.33325L11.748 3.33325H30.4953C31.4535 3.33325 32.3726 3.72108 33.0511 4.41168C33.7295 5.10227 34.1118 6.03925 34.1141 7.01709V24.7247ZM32.4636 23.0044C32.7107 23.0855 32.9578 23.1665 33.205 23.2746V7.06213C33.2096 6.6947 33.1432 6.32994 33.0094 5.98878C32.8757 5.64761 32.6772 5.33674 32.4255 5.074C32.1738 4.81125 31.8737 4.6018 31.5424 4.45765C31.2112 4.31349 30.8554 4.23747 30.4953 4.23395H11.2802C9.3982 4.38597 7.63722 5.24096 6.33439 6.63525C5.03156 8.02954 4.27842 9.86518 4.21913 11.7908C4.19352 12.8729 4.38817 13.9488 4.79076 14.9503C5.19336 15.9518 5.79516 16.8572 6.55812 17.6093C6.59456 17.6562 6.64188 17.6931 6.69582 17.7167C6.74976 17.7403 6.80861 17.7498 6.86705 17.7444C6.92486 17.736 6.98014 17.7147 7.02896 17.682C7.07778 17.6493 7.11893 17.606 7.14949 17.5552C7.20174 17.4871 7.23013 17.403 7.23013 17.3165C7.23013 17.23 7.20174 17.146 7.14949 17.0778C6.18725 16.1534 5.50845 14.9639 5.19536 13.6536C4.88227 12.3434 4.94834 10.9686 5.38557 9.69585C5.82279 8.42313 6.61239 7.30715 7.65866 6.48318C8.70493 5.6592 9.96295 5.16261 11.2802 5.05358H16.6732H30.4953C31.0137 5.06052 31.509 5.27313 31.8764 5.64638C32.2439 6.01962 32.4544 6.52417 32.4636 7.05312V23.0044Z" fill="black"/>
</svg>
