<svg width="40" height="40" viewBox="0 0 40 40" fill="none" xmlns="http://www.w3.org/2000/svg">
<path d="M21.6667 20.2916L25.4167 24.0416C25.7222 24.3471 25.875 24.7294 25.875 25.1883C25.875 25.6471 25.7222 26.0427 25.4167 26.3749C25.0833 26.7083 24.6872 26.8749 24.2283 26.8749C23.7694 26.8749 23.3739 26.7083 23.0417 26.3749L18.8333 22.1666C18.6667 21.9999 18.5417 21.8121 18.4583 21.6033C18.375 21.3944 18.3333 21.1794 18.3333 20.9583V14.9999C18.3333 14.5277 18.4933 14.1316 18.8133 13.8116C19.1333 13.4916 19.5289 13.3321 20 13.3333C20.4722 13.3333 20.8683 13.4933 21.1883 13.8133C21.5083 14.1333 21.6678 14.5288 21.6667 14.9999V20.2916ZM20 9.99992C19.5278 9.99992 19.1317 9.83992 18.8117 9.51992C18.4917 9.19992 18.3322 8.80436 18.3333 8.33325V6.66659H21.6667V8.33325C21.6667 8.80547 21.5067 9.20158 21.1867 9.52158C20.8667 9.84158 20.4711 10.001 20 9.99992ZM30 19.9999C30 19.5277 30.16 19.1316 30.48 18.8116C30.8 18.4916 31.1956 18.3321 31.6667 18.3333H33.3333V21.6666H31.6667C31.1944 21.6666 30.7983 21.5066 30.4783 21.1866C30.1583 20.8666 29.9989 20.471 30 19.9999ZM20 29.9999C20.4722 29.9999 20.8683 30.1599 21.1883 30.4799C21.5083 30.7999 21.6678 31.1955 21.6667 31.6666V33.3333H18.3333V31.6666C18.3333 31.1944 18.4933 30.7983 18.8133 30.4783C19.1333 30.1583 19.5289 29.9988 20 29.9999ZM10 19.9999C10 20.4721 9.84 20.8683 9.52 21.1883C9.2 21.5083 8.80444 21.6677 8.33333 21.6666H6.66667V18.3333H8.33333C8.80555 18.3333 9.20166 18.4933 9.52167 18.8133C9.84166 19.1333 10.0011 19.5288 10 19.9999ZM20 36.6666C17.6944 36.6666 15.5278 36.2288 13.5 35.3533C11.4722 34.4777 9.70833 33.2905 8.20833 31.7916C6.70833 30.2916 5.52111 28.5277 4.64667 26.4999C3.77222 24.4721 3.33444 22.3055 3.33333 19.9999C3.33333 17.6944 3.77111 15.5277 4.64667 13.4999C5.52222 11.4721 6.70944 9.70825 8.20833 8.20825C9.70833 6.70825 11.4722 5.52103 13.5 4.64659C15.5278 3.77214 17.6944 3.33436 20 3.33325C22.3056 3.33325 24.4722 3.77103 26.5 4.64659C28.5278 5.52214 30.2917 6.70936 31.7917 8.20825C33.2917 9.70825 34.4794 11.4721 35.355 13.4999C36.2306 15.5277 36.6678 17.6944 36.6667 19.9999C36.6667 22.3055 36.2289 24.4721 35.3533 26.4999C34.4778 28.5277 33.2906 30.2916 31.7917 31.7916C30.2917 33.2916 28.5278 34.4794 26.5 35.3549C24.4722 36.2305 22.3056 36.6677 20 36.6666ZM33.3333 19.9999C33.3333 16.2777 32.0417 13.1249 29.4583 10.5416C26.875 7.95825 23.7222 6.66659 20 6.66659C16.2778 6.66659 13.125 7.95825 10.5417 10.5416C7.95833 13.1249 6.66667 16.2777 6.66667 19.9999C6.66667 23.7221 7.95833 26.8749 10.5417 29.4583C13.125 32.0416 16.2778 33.3333 20 33.3333C23.7222 33.3333 26.875 32.0416 29.4583 29.4583C32.0417 26.8749 33.3333 23.7221 33.3333 19.9999Z" fill="black"/>
</svg>
