<svg width="40" height="40" viewBox="0 0 40 40" fill="none" xmlns="http://www.w3.org/2000/svg">
<path d="M20 3.33325C16.7037 3.33325 13.4813 4.31073 10.7405 6.14209C7.99968 7.97345 5.86348 10.5764 4.60202 13.6219C3.34056 16.6673 3.0105 20.0184 3.65359 23.2514C4.29667 26.4844 5.88402 29.4542 8.21489 31.785C10.5458 34.1159 13.5155 35.7033 16.7485 36.3463C19.9815 36.9894 23.3326 36.6594 26.3781 35.3979C29.4235 34.1364 32.0265 32.0002 33.8578 29.2594C35.6892 26.5186 36.6667 23.2963 36.6667 19.9999C36.6667 15.5796 34.9107 11.3404 31.7851 8.21481C28.6595 5.0892 24.4203 3.33325 20 3.33325ZM26.4583 25.3957C26.3827 25.5103 26.2851 25.6087 26.1713 25.6854C26.0574 25.762 25.9296 25.8155 25.795 25.8426C25.6605 25.8697 25.5219 25.8699 25.3872 25.8433C25.2526 25.8167 25.1245 25.7637 25.0104 25.6874L18.8646 21.5207V12.4478C18.8646 12.1716 18.9743 11.9066 19.1697 11.7113C19.365 11.5159 19.63 11.4062 19.9063 11.4062C20.1825 11.4062 20.4475 11.5159 20.6428 11.7113C20.8382 11.9066 20.9479 12.1716 20.9479 12.4478V20.4166L26.1563 23.9478C26.2716 24.0227 26.371 24.1196 26.4487 24.2331C26.5264 24.3465 26.5808 24.4743 26.6089 24.6089C26.637 24.7435 26.6381 24.8823 26.6123 25.0174C26.5864 25.1524 26.5341 25.281 26.4583 25.3957ZM26.0938 9.82283C24.6281 8.93941 22.9887 8.38351 21.2879 8.19326C19.5872 8.00302 17.8655 8.18294 16.2409 8.72067C14.6162 9.25841 13.1271 10.1412 11.8758 11.3086C10.6244 12.4759 9.64038 13.9002 8.9912 15.4836C8.34203 17.067 8.04307 18.7721 8.11484 20.4819C8.18661 22.1917 8.62742 23.8658 9.407 25.3892C10.1866 26.9126 11.2865 28.2494 12.6313 29.3078C13.9761 30.3661 15.5339 31.1211 17.1979 31.5207L16.875 33.1562C14.9666 32.712 13.1774 31.8589 11.6307 30.6559C10.0841 29.4529 8.81698 27.9286 7.91681 26.1882C7.01664 24.4478 6.50488 22.5328 6.41685 20.5754C6.32882 18.618 6.66663 16.6648 7.40695 14.8506C8.14727 13.0365 9.27246 11.4046 10.7049 10.0676C12.1373 8.73061 13.8427 7.72041 15.7035 7.10672C17.5644 6.49303 19.5362 6.29046 21.4829 6.51301C23.4296 6.73556 25.3049 7.37792 26.9792 8.39575L26.0938 9.82283Z" fill="black"/>
</svg>
