<svg width="40" height="40" viewBox="0 0 40 40" fill="none" xmlns="http://www.w3.org/2000/svg">
<g clip-path="url(#clip0_2304_4196)">
<rect width="40" height="40" rx="20" fill="white"/>
<path d="M34.1098 0H5.89017C2.63712 0 0 2.63712 0 5.89017V34.1098C0 37.3629 2.63712 40 5.89017 40H34.1098C37.3629 40 40 37.3629 40 34.1098V5.89017C40 2.63712 37.3629 0 34.1098 0Z" fill="#303030"/>
<path d="M20.0242 4.1123L19.8125 4.83978V25.9548L20.0242 26.1684L29.719 20.3753L20.0242 4.1123Z" fill="#9B9B9B"/>
<path d="M20.0009 4.1123L10.2812 20.375L20.0009 26.1684" fill="white"/>
<path d="M19.9331 27.964L19.8125 28.1094V35.5411L19.9331 35.888L29.719 22.2432L19.9331 27.964Z" fill="#9B9B9B"/>
<path d="M20.0009 35.888V27.9637L10.2812 22.2432" fill="white"/>
<path d="M20 26.1681L29.7196 20.3565L20 15.8877V26.1681Z" fill="#666666"/>
<path d="M10.2812 20.3565L20.0009 26.1681V15.8877" fill="#9B9B9B"/>
</g>
<defs>
<clipPath id="clip0_2304_4196">
<rect width="40" height="40" rx="20" fill="white"/>
</clipPath>
</defs>
</svg>
