<svg width="64" height="37" viewBox="0 0 64 37" fill="none" xmlns="http://www.w3.org/2000/svg">
<rect width="64" height="37" rx="4" fill="black"/>
<path d="M16.4966 29H9.24912C8.5595 29 8 28.4178 8 27.7002C8 26.9826 8.5595 26.4004 9.24912 26.4004H16.4966C18.5655 26.4004 20.4261 25.1141 21.2459 23.1102L25.4486 12.8743C26.6587 9.92263 29.4302 8 32.501 8H38.3041C38.9938 8 39.5533 8.5822 39.5533 9.2998C39.5533 10.0174 38.9938 10.5996 38.3041 10.5996H32.501C30.4321 10.5996 28.5714 11.8859 27.7517 13.8897L23.5489 24.1257C22.3388 27.0909 19.5674 29 16.4966 29Z" fill="white"/>
<path d="M20.9596 14.675C20.4782 14.675 20.0098 14.3772 19.8146 13.8897C18.9948 11.8859 17.1342 10.5996 15.0653 10.5996H9.26212C8.5725 10.5996 8.013 10.0174 8.013 9.2998C8.013 8.5822 8.5725 8 9.26212 8H15.0653C18.1361 8 20.9076 9.90909 22.1176 12.8743C22.3909 13.5377 22.0916 14.2959 21.454 14.5803C21.2979 14.6344 21.1287 14.675 20.9596 14.675Z" fill="white"/>
<path d="M54.7509 29H48.9477C45.8769 29 43.1054 27.0909 41.8953 24.1257C41.6221 23.4623 41.9214 22.7041 42.5589 22.4197C43.1965 22.1354 43.9252 22.4468 44.1984 23.1102C45.0181 25.1141 46.8788 26.4004 48.9477 26.4004H54.7509C55.4405 26.4004 56 26.9826 56 27.7002C56 28.4178 55.4405 29 54.7509 29Z" fill="white"/>
<path d="M32.9433 29H25.6959C25.0062 29 24.4467 28.4178 24.4467 27.7002C24.4467 26.9826 25.0062 26.4004 25.6959 26.4004H32.9433C35.0122 26.4004 36.8729 25.1141 37.6926 23.1102L41.8954 12.8743C43.1055 9.92263 45.8769 8 48.9477 8H54.7509C55.4405 8 56 8.5822 56 9.2998C56 10.0174 55.4405 10.5996 54.7509 10.5996H48.9477C46.8788 10.5996 45.0182 11.8859 44.1984 13.8897L39.9957 24.1257C38.7726 27.0909 36.0141 29 32.9433 29Z" fill="white"/>
<path d="M29.1439 20.5106C28.077 20.5106 27.2052 19.6035 27.2052 18.4932C27.2052 17.383 28.077 16.4758 29.1439 16.4758C30.2109 16.4758 31.0827 17.383 31.0827 18.4932C31.0827 19.6035 30.2109 20.5106 29.1439 20.5106Z" fill="white"/>
<path d="M35.7539 20.5106C34.6869 20.5106 33.8151 19.6035 33.8151 18.4932C33.8151 17.383 34.6869 16.4758 35.7539 16.4758C36.8208 16.4758 37.6926 17.383 37.6926 18.4932C37.6926 19.6035 36.8208 20.5106 35.7539 20.5106Z" fill="white"/>
</svg>
