<svg width="58" height="24" viewBox="0 0 58 24" fill="none" xmlns="http://www.w3.org/2000/svg">
<path d="M10.2328 23.5212H1.50436C0.673827 23.5212 0 22.883 0 22.0963C0 21.3096 0.673827 20.6714 1.50436 20.6714H10.2328C12.7244 20.6714 14.9653 19.2613 15.9526 17.0646L21.0141 5.84341C22.4715 2.60768 25.8093 0.5 29.5075 0.5H36.4966C37.3271 0.5 38.0009 1.13824 38.0009 1.92491C38.0009 2.71158 37.3271 3.34982 36.4966 3.34982H29.5075C27.0159 3.34982 24.775 4.75989 23.7878 6.95662L18.7262 18.1778C17.2689 21.4284 13.9311 23.5212 10.2328 23.5212Z" fill="white"/>
<path d="M15.6078 7.8175C15.028 7.8175 14.4639 7.49096 14.2288 6.95662C13.2416 4.75989 11.0007 3.34982 8.50907 3.34982H1.52002C0.689482 3.34982 0.0156555 2.71158 0.0156555 1.92491C0.0156555 1.13824 0.689482 0.5 1.52002 0.5H8.50907C12.2073 0.5 15.5451 2.59284 17.0025 5.84341C17.3315 6.57071 16.9711 7.4019 16.2033 7.7136C16.0152 7.77297 15.8115 7.8175 15.6078 7.8175Z" fill="white"/>
<path d="M56.304 23.5212H49.315C45.6167 23.5212 42.2789 21.4284 40.8216 18.1778C40.4925 17.4505 40.8529 16.6193 41.6208 16.3076C42.3886 15.9959 43.2662 16.3373 43.5953 17.0646C44.5825 19.2613 46.8234 20.6714 49.315 20.6714H56.304C57.1346 20.6714 57.8084 21.3096 57.8084 22.0963C57.8084 22.883 57.1346 23.5212 56.304 23.5212Z" fill="white"/>
<path d="M30.0403 23.5212H21.3119C20.4813 23.5212 19.8075 22.883 19.8075 22.0963C19.8075 21.3096 20.4813 20.6714 21.3119 20.6714H30.0403C32.5319 20.6714 34.7728 19.2613 35.76 17.0646L40.8216 5.84341C42.279 2.60768 45.6168 0.5 49.315 0.5H56.3041C57.1346 0.5 57.8084 1.13824 57.8084 1.92491C57.8084 2.71158 57.1346 3.34982 56.3041 3.34982H49.315C46.8234 3.34982 44.5825 4.75989 43.5953 6.95662L38.5337 18.1778C37.0607 21.4284 33.7385 23.5212 30.0403 23.5212Z" fill="white"/>
<path d="M25.4645 14.2148C24.1796 14.2148 23.1296 13.2203 23.1296 12.0032C23.1296 10.7861 24.1796 9.7916 25.4645 9.7916C26.7495 9.7916 27.7994 10.7861 27.7994 12.0032C27.7994 13.2203 26.7495 14.2148 25.4645 14.2148Z" fill="white"/>
<path d="M33.4251 14.2148C32.1402 14.2148 31.0902 13.2203 31.0902 12.0032C31.0902 10.7861 32.1402 9.7916 33.4251 9.7916C34.7101 9.7916 35.76 10.7861 35.76 12.0032C35.76 13.2203 34.7101 14.2148 33.4251 14.2148Z" fill="white"/>
</svg>
