<svg width="24" height="24" viewBox="0 0 24 24" fill="none" xmlns="http://www.w3.org/2000/svg">
<rect x="0.5" y="0.5" width="23" height="23" rx="3.5" fill="white"/>
<rect x="0.5" y="0.5" width="23" height="23" rx="3.5" stroke="#808080"/>
<path d="M5.63605 9.29301C5.82358 9.10554 6.07788 9.00023 6.34305 9.00023C6.60821 9.00023 6.86252 9.10554 7.05005 9.29301L12 14.243L16.95 9.29301C17.1387 9.11085 17.3913 9.01006 17.6535 9.01234C17.9156 9.01462 18.1665 9.11979 18.3519 9.30519C18.5373 9.4906 18.6424 9.74141 18.6447 10.0036C18.647 10.2658 18.5462 10.5184 18.364 10.707L12.707 16.364C12.5195 16.5515 12.2652 16.6568 12 16.6568C11.7349 16.6568 11.4806 16.5515 11.293 16.364L5.63605 10.707C5.44858 10.5195 5.34326 10.2652 5.34326 10C5.34326 9.73485 5.44858 9.48054 5.63605 9.29301Z" fill="black"/>
</svg>
