<svg width="32" height="32" viewBox="0 0 32 32" fill="none" xmlns="http://www.w3.org/2000/svg">
<g clip-path="url(#clip0_1488_932)">
<path fill-rule="evenodd" clip-rule="evenodd" d="M16.0117 0C7.157 0 0.00012207 7.1496 0.00012207 15.9949C0.00012207 23.0655 4.58641 29.0505 10.9486 31.1687C11.7453 31.3279 12.0355 30.8246 12.0355 30.4011C12.0355 30.0303 12.0098 28.7592 12.0098 27.4348C7.55561 28.3884 6.62807 25.5282 6.62807 25.5282C5.91231 23.6745 4.85164 23.198 4.85164 23.198C3.39364 22.2181 4.95779 22.2181 4.95779 22.2181C6.57487 22.3242 7.42351 23.86 7.42351 23.86C8.85478 26.2962 11.1612 25.6079 12.0892 25.1852C12.2216 24.1523 12.6461 23.4373 13.0967 23.0402C9.54408 22.6692 5.80642 21.2923 5.80642 15.1483C5.80642 13.4007 6.44226 11.9705 7.44973 10.8584C7.29064 10.4614 6.73396 8.81978 7.60907 6.62133C7.60907 6.62133 8.96093 6.19755 12.0095 8.26322C14.6308 7.55683 17.3946 7.55683 20.0158 8.26322C23.0647 6.19755 24.4166 6.62133 24.4166 6.62133C25.2904 8.81927 24.7345 10.4614 24.5756 10.8584C25.6096 11.9705 26.2205 13.4007 26.2205 15.1483C26.2205 21.2923 22.4828 22.6427 18.9038 23.0402C19.4872 23.5433 19.9904 24.4964 19.9904 26.006C19.9904 28.1509 19.9647 29.8723 19.9647 30.4019C19.9647 30.8257 20.2564 31.3289 21.0516 31.1699C27.4143 29.0512 32.0001 23.0662 32.0001 15.9959C32.0237 7.1496 24.8393 0 16.0117 0Z" fill="#292929"/>
</g>
<defs>
<clipPath id="clip0_1488_932">
<rect width="32" height="32" fill="white"/>
</clipPath>
</defs>
</svg>
