<svg width="186" height="25" viewBox="0 0 186 25" fill="none" xmlns="http://www.w3.org/2000/svg">
<path d="M10.2328 23.5212H1.50436C0.673827 23.5212 0 22.883 0 22.0963C0 21.3096 0.673827 20.6714 1.50436 20.6714H10.2328C12.7244 20.6714 14.9653 19.2613 15.9526 17.0646L21.0141 5.84341C22.4715 2.60768 25.8093 0.5 29.5075 0.5H36.4966C37.3271 0.5 38.0009 1.13824 38.0009 1.92491C38.0009 2.71158 37.3271 3.34982 36.4966 3.34982H29.5075C27.0159 3.34982 24.775 4.75989 23.7878 6.95662L18.7262 18.1778C17.2689 21.4284 13.9311 23.5212 10.2328 23.5212Z" fill="white"/>
<path d="M15.6078 7.8175C15.0279 7.8175 14.4638 7.49096 14.2288 6.95662C13.2415 4.75989 11.0006 3.34982 8.50904 3.34982H1.51999C0.689452 3.34982 0.015625 2.71158 0.015625 1.92491C0.015625 1.13824 0.689452 0.5 1.51999 0.5H8.50904C12.2073 0.5 15.5451 2.59284 17.0024 5.84341C17.3315 6.57071 16.9711 7.4019 16.2032 7.7136C16.0152 7.77297 15.8115 7.8175 15.6078 7.8175Z" fill="white"/>
<path d="M56.3041 23.5212H49.315C45.6168 23.5212 42.279 21.4284 40.8216 18.1778C40.4926 17.4505 40.853 16.6193 41.6208 16.3076C42.3887 15.9959 43.2662 16.3373 43.5953 17.0646C44.5826 19.2613 46.8234 20.6714 49.315 20.6714H56.3041C57.1346 20.6714 57.8085 21.3096 57.8085 22.0963C57.8085 22.883 57.1346 23.5212 56.3041 23.5212Z" fill="white"/>
<path d="M30.0404 23.5212H21.312C20.4814 23.5212 19.8076 22.883 19.8076 22.0963C19.8076 21.3096 20.4814 20.6714 21.312 20.6714H30.0404C32.532 20.6714 34.7729 19.2613 35.7602 17.0646L40.8217 5.84341C42.2791 2.60768 45.6169 0.5 49.3151 0.5H56.3042C57.1347 0.5 57.8085 1.13824 57.8085 1.92491C57.8085 2.71158 57.1347 3.34982 56.3042 3.34982H49.3151C46.8235 3.34982 44.5826 4.75989 43.5954 6.95662L38.5338 18.1778C37.0608 21.4284 33.7387 23.5212 30.0404 23.5212Z" fill="white"/>
<path d="M25.4645 14.2148C24.1796 14.2148 23.1296 13.2203 23.1296 12.0032C23.1296 10.7861 24.1796 9.7916 25.4645 9.7916C26.7495 9.7916 27.7994 10.7861 27.7994 12.0032C27.7994 13.2203 26.7495 14.2148 25.4645 14.2148Z" fill="white"/>
<path d="M33.4252 14.2148C32.1403 14.2148 31.0903 13.2203 31.0903 12.0032C31.0903 10.7861 32.1403 9.7916 33.4252 9.7916C34.7102 9.7916 35.7601 10.7861 35.7601 12.0032C35.7601 13.2203 34.7102 14.2148 33.4252 14.2148Z" fill="white"/>
<path d="M70.3218 18.6334V18.4996H74.1051V18.6334C74.3543 20.1058 75.9401 21.0204 78.1376 21.0204C80.335 21.0204 81.7623 20.0612 81.7623 18.6334C81.7623 17.3618 80.8108 16.7149 78.4547 16.2241L76.4385 15.8226C72.5872 15.0641 70.7296 13.3017 70.7296 10.4686C70.7296 7.01075 73.7879 4.73529 78.0243 4.73529C82.2607 4.73529 85.1831 6.96613 85.3643 10.2232V10.4909H81.649V10.2901C81.3998 8.81773 80.0179 7.92539 78.0243 7.92539C76.0307 7.92539 74.8527 8.86235 74.8527 10.2009C74.8527 11.3832 75.8268 12.0748 78.0469 12.4317L80.0632 12.8332C83.9144 13.7256 85.7721 15.3318 85.7721 18.2988C85.7721 21.9128 82.8723 24.2105 78.0469 24.2105C73.2215 24.2105 70.571 22.1805 70.3218 18.6334Z" fill="white"/>
<path d="M87.3911 14.6571C87.3911 8.56695 90.9252 4.90838 96.4529 4.90838C98.4811 4.76993 100.485 5.41062 102.044 6.69593C103.602 7.98124 104.595 9.81121 104.812 11.8017V11.9132H100.984V11.6901C100.802 10.6841 100.252 9.77864 99.4382 9.1454C98.6239 8.51216 97.602 8.1952 96.5662 8.25464C93.5078 8.25464 91.5369 10.6863 91.5369 14.6348C91.5369 18.6057 93.5078 21.0597 96.5662 21.0597C97.634 21.1289 98.6898 20.8039 99.5275 20.1481C100.365 19.4923 100.925 18.5527 101.097 17.5126V17.4011H105.016V17.5572C104.804 19.5482 103.812 21.3793 102.252 22.6621C100.691 23.9449 98.684 24.5784 96.6568 24.4282C90.9252 24.4282 87.3911 20.7473 87.3911 14.6571Z" fill="white"/>
<path d="M130.525 17.1334C130.447 16.1895 130.574 15.2401 130.897 14.348C131.219 13.4559 131.73 12.6413 132.396 11.9582C133.062 11.275 133.868 10.7388 134.76 10.3849C135.652 10.0311 136.61 9.86765 137.571 9.90546C138.531 9.86473 139.49 10.0252 140.383 10.3763C141.276 10.7274 142.083 11.2611 142.751 11.9421C143.419 12.6232 143.933 13.4361 144.258 14.3271C144.584 15.2182 144.714 16.167 144.639 17.1111C144.727 18.0603 144.608 19.017 144.29 19.9173C143.972 20.8175 143.462 21.6405 142.795 22.3312C142.128 23.0218 141.319 23.5642 140.422 23.922C139.525 24.2798 138.56 24.4448 137.593 24.4059C136.626 24.4477 135.662 24.2857 134.763 23.9306C133.865 23.5756 133.055 23.0357 132.385 22.3472C131.716 21.6587 131.204 20.8374 130.883 19.9382C130.562 19.039 130.44 18.0828 130.525 17.1334ZM140.697 17.1334C140.697 14.4341 139.451 12.8502 137.571 12.8502C135.69 12.8502 134.49 14.3671 134.49 17.1111C134.49 19.855 135.69 21.4166 137.593 21.4166C139.496 21.4166 140.697 19.8773 140.697 17.1334Z" fill="white"/>
<path d="M150.665 21.7512V24.1382H146.723V5.28762H150.597V12.5602C150.986 11.7287 151.619 11.0312 152.414 10.5579C153.21 10.0846 154.132 9.85732 155.06 9.90546C158.639 9.90546 160.86 12.6271 160.86 17.2003C160.86 21.662 158.594 24.4951 155.06 24.4951C154.13 24.5379 153.209 24.2974 152.423 23.8065C151.636 23.3155 151.022 22.5979 150.665 21.7512ZM156.918 17.1334C156.918 14.5679 155.694 13.0063 153.769 13.0063C151.843 13.0063 150.597 14.5902 150.597 17.1334C150.597 19.6765 151.888 21.2604 153.769 21.2604C155.649 21.2604 156.918 19.6765 156.918 17.1334Z" fill="white"/>
<path d="M162.332 17.1334C162.332 15.2933 163.074 13.5286 164.396 12.2275C165.717 10.9264 167.509 10.1955 169.378 10.1955C171.246 10.1955 173.038 10.9264 174.36 12.2275C175.681 13.5286 176.423 15.2933 176.423 17.1334C176.423 18.9734 175.681 20.7381 174.36 22.0392C173.038 23.3403 171.246 24.0713 169.378 24.0713C167.509 24.0713 165.717 23.3403 164.396 22.0392C163.074 20.7381 162.332 18.9734 162.332 17.1334ZM172.481 17.1334C172.481 14.4341 171.258 12.8502 169.355 12.8502C167.452 12.8502 166.274 14.3671 166.274 17.1111C166.274 19.855 167.475 21.4166 169.4 21.4166C171.326 21.4166 172.481 19.8773 172.481 17.1334Z" fill="white"/>
<path d="M179.436 20.2119V13.0063H177.443V10.1285H179.436V6.71535H183.378V10.1285H185.983V13.0063H183.378V19.8104C183.378 21.1043 183.99 21.5504 185.145 21.5504C185.424 21.5671 185.704 21.5671 185.983 21.5504V24.3613C185.369 24.4531 184.747 24.4979 184.126 24.4951C180.909 24.4282 179.436 23.2905 179.436 20.2119Z" fill="white"/>
<path d="M113.784 15.9287V24.4282H108.8V0.982101H113.784" fill="#2997FF"/>
<path d="M123.57 15.1925C124.898 14.6455 126.022 13.7103 126.792 12.5133C127.562 11.3164 127.94 9.91542 127.875 8.50003C127.875 3.77065 124.703 0.982101 119.357 0.982101H115.279V4.81915H119.13C119.625 4.78836 120.121 4.8632 120.584 5.03856C121.047 5.21391 121.465 5.48564 121.812 5.83516C122.158 6.18468 122.424 6.60374 122.59 7.06367C122.757 7.52361 122.821 8.01357 122.777 8.50003C122.825 8.98147 122.765 9.46729 122.602 9.9236C122.439 10.3799 122.177 10.7957 121.834 11.1419C121.491 11.4882 121.075 11.7565 120.616 11.9283C120.157 12.1 119.665 12.171 119.175 12.1363H115.279V15.9287H118.496L123.027 24.4282H128.668L123.57 15.1925Z" fill="#2997FF"/>
</svg>
