<svg width="262" height="34" viewBox="0 0 262 34" fill="none" xmlns="http://www.w3.org/2000/svg">
<path d="M14.872 34H2.49084C1.31274 34 0.356934 33.0574 0.356934 31.8955C0.356934 30.7337 1.31274 29.7911 2.49084 29.7911H14.872C18.4063 29.7911 21.5849 27.7086 22.9853 24.4642L30.165 7.89168C32.2322 3.11283 36.9669 0 42.2127 0H52.1265C53.3046 0 54.2604 0.942612 54.2604 2.10444C54.2604 3.26627 53.3046 4.2089 52.1265 4.2089H42.2127C38.6784 4.2089 35.4998 6.29142 34.0994 9.53578L26.9197 26.1083C24.8525 30.9091 20.1179 34 14.872 34Z" fill="white"/>
<path d="M22.4963 10.8072C21.6738 10.8072 20.8736 10.325 20.5402 9.53578C19.1398 6.29142 15.9612 4.2089 12.4269 4.2089H2.51306C1.33497 4.2089 0.379158 3.26627 0.379158 2.10444C0.379158 0.942612 1.33497 0 2.51306 0H12.4269C17.6727 0 22.4074 3.09091 24.4746 7.89168C24.9414 8.96583 24.4301 10.1934 23.3409 10.6538C23.0742 10.7415 22.7852 10.8072 22.4963 10.8072Z" fill="white"/>
<path d="M80.223 34H70.3092C65.0633 34 60.3287 30.9091 58.2615 26.1083C57.7947 25.0342 58.306 23.8066 59.3951 23.3462C60.4843 22.8859 61.7291 23.3901 62.1959 24.4642C63.5963 27.7086 66.7749 29.7911 70.3092 29.7911H80.223C81.4011 29.7911 82.3569 30.7337 82.3569 31.8956C82.3569 33.0574 81.4011 34 80.223 34Z" fill="white"/>
<path d="M42.9685 34H30.5873C29.4092 34 28.4534 33.0574 28.4534 31.8955C28.4534 30.7337 29.4092 29.7911 30.5873 29.7911H42.9685C46.5028 29.7911 49.6814 27.7086 51.0818 24.4642L58.2615 7.89168C60.3287 3.11283 65.0633 0 70.3092 0H80.223C81.4011 0 82.3569 0.942612 82.3569 2.10444C82.3569 3.26627 81.4011 4.2089 80.223 4.2089H70.3092C66.7749 4.2089 63.5963 6.29142 62.1959 9.53578L55.0162 26.1083C52.9267 30.9091 48.2143 34 42.9685 34Z" fill="white"/>
<path d="M36.4778 20.2553C34.6551 20.2553 33.1658 18.7866 33.1658 16.989C33.1658 15.1915 34.6551 13.7228 36.4778 13.7228C38.3005 13.7228 39.7898 15.1915 39.7898 16.989C39.7898 18.7866 38.3005 20.2553 36.4778 20.2553Z" fill="white"/>
<path d="M47.7698 20.2553C45.9471 20.2553 44.4578 18.7866 44.4578 16.989C44.4578 15.1915 45.9471 13.7228 47.7698 13.7228C49.5925 13.7228 51.0818 15.1915 51.0818 16.989C51.0818 18.7866 49.5925 20.2553 47.7698 20.2553Z" fill="white"/>
<path d="M98.3569 25.8011V25.6076H103.679V25.8011C104.029 27.9297 106.26 29.252 109.351 29.252C112.442 29.252 114.45 27.8652 114.45 25.8011C114.45 23.9628 113.111 23.0275 109.797 22.318L106.961 21.7375C101.544 20.6409 98.9305 18.093 98.9305 13.9971C98.9305 8.99815 103.233 5.70851 109.192 5.70851C115.151 5.70851 119.262 8.93365 119.517 13.6424V14.0294H114.29V13.7391C113.94 11.6105 111.996 10.3205 109.192 10.3205C106.387 10.3205 104.73 11.675 104.73 13.6101C104.73 15.3194 106.101 16.3192 109.224 16.8352L112.06 17.4158C117.477 18.7058 120.09 21.0279 120.09 25.3174C120.09 30.5421 116.011 33.864 109.224 33.864C102.436 33.864 98.7075 30.9291 98.3569 25.8011Z" fill="white"/>
<path d="M122.672 19.7701C122.672 10.9655 127.643 5.67625 135.418 5.67625C138.271 5.4761 141.09 6.40234 143.282 8.26053C145.475 10.1187 146.871 12.7643 147.177 15.6419V15.8032H141.792V15.4807C141.537 14.0263 140.763 12.7172 139.618 11.8017C138.472 10.8863 137.035 10.428 135.578 10.514C131.276 10.514 128.503 14.0294 128.503 19.7379C128.503 25.4786 131.276 29.0263 135.578 29.0263C137.08 29.1263 138.565 28.6565 139.743 27.7084C140.922 26.7603 141.709 25.4019 141.951 23.8983V23.737H147.464V23.9628C147.165 26.8411 145.77 29.4884 143.575 31.343C141.38 33.1975 138.557 34.1134 135.705 33.8962C127.643 33.8962 122.672 28.5747 122.672 19.7701Z" fill="white"/>
<path d="M183.346 23.35C183.237 21.9855 183.415 20.613 183.869 19.3232C184.323 18.0335 185.042 16.8558 185.978 15.8682C186.915 14.8805 188.048 14.1053 189.303 13.5937C190.558 13.0821 191.905 12.8459 193.257 12.9006C194.608 12.8417 195.957 13.0737 197.213 13.5813C198.469 14.0888 199.605 14.8604 200.544 15.845C201.484 16.8296 202.207 18.0048 202.664 19.293C203.122 20.5812 203.305 21.953 203.2 23.3178C203.323 24.69 203.156 26.0732 202.709 27.3747C202.261 28.6762 201.545 29.866 200.606 30.8645C199.668 31.863 198.53 32.6471 197.268 33.1644C196.006 33.6817 194.649 33.9202 193.289 33.864C191.929 33.9244 190.572 33.6901 189.308 33.1768C188.045 32.6635 186.904 31.8831 185.963 30.8877C185.022 29.8923 184.301 28.7049 183.85 27.405C183.399 26.105 183.227 24.7225 183.346 23.35ZM197.655 23.35C197.655 19.4476 195.902 17.1578 193.257 17.1578C190.612 17.1578 188.923 19.3508 188.923 23.3178C188.923 27.2847 190.612 29.5423 193.289 29.5423C195.966 29.5423 197.655 27.3169 197.655 23.35Z" fill="white"/>
<path d="M211.676 30.0261V33.477H206.131V6.22452H211.581V16.7385C212.127 15.5364 213.018 14.528 214.137 13.8438C215.256 13.1595 216.553 12.831 217.858 12.9006C222.893 12.9006 226.016 16.8352 226.016 23.4468C226.016 29.897 222.83 33.993 217.858 33.993C216.55 34.0548 215.255 33.7071 214.148 32.9973C213.042 32.2875 212.179 31.2501 211.676 30.0261ZM220.471 23.35C220.471 19.6411 218.751 17.3835 216.042 17.3835C213.333 17.3835 211.581 19.6734 211.581 23.35C211.581 27.0267 213.397 29.3165 216.042 29.3165C218.687 29.3165 220.471 27.0267 220.471 23.35Z" fill="white"/>
<path d="M228.088 23.35C228.088 20.6898 229.132 18.1386 230.99 16.2576C232.849 14.3766 235.37 13.3198 237.998 13.3198C240.627 13.3198 243.148 14.3766 245.006 16.2576C246.865 18.1386 247.909 20.6898 247.909 23.35C247.909 26.0102 246.865 28.5614 245.006 30.4424C243.148 32.3235 240.627 33.3802 237.998 33.3802C235.37 33.3802 232.849 32.3235 230.99 30.4424C229.132 28.5614 228.088 26.0102 228.088 23.35ZM242.364 23.35C242.364 19.4476 240.643 17.1577 237.967 17.1577C235.29 17.1577 233.633 19.3508 233.633 23.3178C233.633 27.2847 235.322 29.5423 238.03 29.5423C240.739 29.5423 242.364 27.3169 242.364 23.35Z" fill="white"/>
<path d="M252.147 27.8007V17.3835H249.343V13.2231H252.147V8.2886H257.692V13.2231H261.357V17.3835H257.692V27.2202C257.692 29.0908 258.553 29.7358 260.178 29.7358C260.571 29.7599 260.964 29.7599 261.357 29.7358V33.7995C260.492 33.9322 259.619 33.9969 258.744 33.993C254.219 33.8962 252.147 32.2514 252.147 27.8007Z" fill="white"/>
<path d="M159.797 21.6084V33.8962H152.786V0H159.797" fill="#2997FF"/>
<path d="M173.563 20.5441C175.43 19.7533 177.012 18.4012 178.095 16.6708C179.178 14.9403 179.71 12.915 179.618 10.8687C179.618 4.03143 175.157 0 167.636 0H161.9V5.54724H167.317C168.013 5.50273 168.711 5.61093 169.362 5.86445C170.013 6.11796 170.602 6.5108 171.089 7.0161C171.577 7.5214 171.95 8.12724 172.185 8.79217C172.419 9.4571 172.509 10.1654 172.448 10.8687C172.515 11.5647 172.43 12.2671 172.201 12.9268C171.972 13.5865 171.603 14.1876 171.121 14.6881C170.638 15.1887 170.054 15.5767 169.408 15.825C168.762 16.0733 168.07 16.1759 167.381 16.1257H161.9V21.6084H166.425L172.798 33.8962H180.733L173.563 20.5441Z" fill="#2997FF"/>
</svg>
