<svg width="192" height="32" viewBox="0 0 192 32" fill="none" xmlns="http://www.w3.org/2000/svg">
<path d="M23.7854 9.20376L20.9275 23.612C20.9275 23.612 20.5282 24.6114 19.4287 24.1318L12.834 19.0761L10.4359 17.9166L6.3993 16.5581C6.3993 16.5581 5.78 16.338 5.72005 15.8584C5.6601 15.3788 6.41909 15.1192 6.41909 15.1192L22.4664 8.82426C22.4664 8.82426 23.7854 8.24452 23.7854 9.20376Z" fill="#292929"/>
<path d="M12.3274 23.4508C12.3274 23.4508 12.135 23.4322 11.8951 22.6714C11.6553 21.9106 10.4359 17.9148 10.4359 17.9148L20.1284 11.7619C20.1284 11.7619 20.6877 11.422 20.6679 11.7619C20.6679 11.7619 20.768 11.8219 20.4683 12.1012C20.1685 12.3806 12.8544 18.9562 12.8544 18.9562" fill="#D3E6F2"/>
<path d="M15.3628 21.0144L12.7543 23.3927C12.7543 23.3927 12.5504 23.5473 12.3274 23.4526L12.8298 19.033" fill="#B6D0E5"/>
<path d="M166.144 6.72998L173.792 16.9556L166.096 25.2696H167.828L174.566 17.9904L180.01 25.2696H185.904L177.826 14.4689L184.989 6.72998H183.257L177.052 13.4337L172.038 6.72998H166.144ZM168.691 8.00578H171.399L183.357 23.9938H180.649L168.691 8.00578Z" fill="#292929"/>
<g clip-path="url(#clip0_1505_519)">
<path fill-rule="evenodd" clip-rule="evenodd" d="M96.0117 0C87.157 0 80.0001 7.1496 80.0001 15.9949C80.0001 23.0655 84.5864 29.0505 90.9486 31.1687C91.7453 31.3279 92.0355 30.8246 92.0355 30.4011C92.0355 30.0303 92.0098 28.7592 92.0098 27.4348C87.5556 28.3884 86.6281 25.5282 86.6281 25.5282C85.9123 23.6745 84.8516 23.198 84.8516 23.198C83.3936 22.2181 84.9578 22.2181 84.9578 22.2181C86.5749 22.3242 87.4235 23.86 87.4235 23.86C88.8548 26.2962 91.1612 25.6079 92.0892 25.1852C92.2216 24.1523 92.6461 23.4373 93.0967 23.0402C89.5441 22.6692 85.8064 21.2923 85.8064 15.1483C85.8064 13.4007 86.4423 11.9705 87.4497 10.8584C87.2906 10.4614 86.734 8.81978 87.6091 6.62133C87.6091 6.62133 88.9609 6.19755 92.0095 8.26322C94.6308 7.55683 97.3946 7.55683 100.016 8.26322C103.065 6.19755 104.417 6.62133 104.417 6.62133C105.29 8.81927 104.734 10.4614 104.576 10.8584C105.61 11.9705 106.22 13.4007 106.22 15.1483C106.22 21.2923 102.483 22.6427 98.9038 23.0402C99.4872 23.5433 99.9904 24.4964 99.9904 26.006C99.9904 28.1509 99.9647 29.8723 99.9647 30.4019C99.9647 30.8257 100.256 31.3289 101.052 31.1699C107.414 29.0512 112 23.0662 112 15.9959C112.024 7.1496 104.839 0 96.0117 0Z" fill="#292929"/>
</g>
<defs>
<clipPath id="clip0_1505_519">
<rect width="32" height="32" fill="white" transform="translate(80)"/>
</clipPath>
</defs>
</svg>
