<svg width="163" height="34" viewBox="0 0 163 34" fill="none" xmlns="http://www.w3.org/2000/svg">
<path d="M0 25.8011V25.6076H5.3218V25.8011C5.67234 27.9297 7.90303 29.252 10.9941 29.252C14.0852 29.252 16.0929 27.8652 16.0929 25.8011C16.0929 23.9628 14.7544 23.0275 11.4403 22.318L8.6041 21.7375C3.18671 20.6409 0.573607 18.0931 0.573607 13.9971C0.573607 8.99816 4.87566 5.70851 10.8348 5.70851C16.7939 5.70851 20.9048 8.93365 21.1597 13.6424V14.0294H15.9335V13.7391C15.583 11.6105 13.6391 10.3205 10.8348 10.3205C8.0305 10.3205 6.37341 11.675 6.37341 13.6101C6.37341 15.3194 7.74369 16.3192 10.8667 16.8352L13.7028 17.4158C19.1202 18.7058 21.7333 21.0279 21.7333 25.3174C21.7333 30.5421 17.6543 33.864 10.8667 33.864C4.07898 33.864 0.350538 30.9291 0 25.8011Z" fill="white"/>
<path d="M24.3146 19.7701C24.3146 10.9655 29.2858 5.67626 37.0614 5.67626C39.9143 5.47611 42.7329 6.40235 44.9255 8.26053C47.118 10.1187 48.514 12.7643 48.8203 15.6419V15.8032H43.4348V15.4807C43.1797 14.0263 42.4061 12.7172 41.2607 11.8017C40.1153 10.8863 38.6778 10.428 37.2207 10.514C32.9187 10.514 30.1462 14.0294 30.1462 19.7379C30.1462 25.4786 32.9187 29.0263 37.2207 29.0263C38.7228 29.1263 40.2079 28.6565 41.3863 27.7084C42.5646 26.7603 43.3518 25.4019 43.5941 23.8983V23.737H49.1071V23.9628C48.8085 26.8411 47.4135 29.4884 45.2181 31.343C43.0227 33.1975 40.1998 34.1134 37.3482 33.8962C29.2858 33.8962 24.3146 28.5748 24.3146 19.7701Z" fill="white"/>
<path d="M84.9894 23.35C84.8801 21.9854 85.0582 20.6129 85.5119 19.3232C85.9656 18.0335 86.6846 16.8558 87.6213 15.8682C88.5581 14.8805 89.6912 14.1053 90.946 13.5937C92.2007 13.0821 93.5484 12.8459 94.9001 12.9006C96.2515 12.8417 97.5998 13.0737 98.856 13.5812C100.112 14.0888 101.248 14.8604 102.187 15.845C103.127 16.8296 103.85 18.0048 104.307 19.293C104.765 20.5811 104.948 21.953 104.843 23.3178C104.966 24.69 104.799 26.0732 104.352 27.3747C103.904 28.6762 103.188 29.866 102.249 30.8645C101.311 31.863 100.173 32.6471 98.9109 33.1644C97.6489 33.6817 96.2924 33.9202 94.932 33.864C93.5719 33.9244 92.2147 33.6901 90.9513 33.1768C89.6879 32.6635 88.5474 31.8831 87.6061 30.8877C86.6648 29.8923 85.9444 28.7049 85.4931 27.4049C85.0419 26.105 84.8701 24.7225 84.9894 23.35ZM99.2977 23.35C99.2977 19.4476 97.5451 17.1577 94.9001 17.1577C92.2551 17.1577 90.5662 19.3508 90.5662 23.3178C90.5662 27.2847 92.2551 29.5423 94.932 29.5423C97.6088 29.5423 99.2977 27.3169 99.2977 23.35Z" fill="white"/>
<path d="M113.319 30.0261V33.477H107.774V6.22452H113.224V16.7385C113.77 15.5364 114.661 14.528 115.78 13.8438C116.899 13.1595 118.196 12.831 119.501 12.9006C124.536 12.9006 127.659 16.8352 127.659 23.4468C127.659 29.897 124.473 33.993 119.501 33.993C118.193 34.0548 116.898 33.7071 115.792 32.9973C114.685 32.2875 113.822 31.2501 113.319 30.0261ZM122.115 23.35C122.115 19.6411 120.394 17.3835 117.685 17.3835C114.976 17.3835 113.224 19.6734 113.224 23.35C113.224 27.0267 115.04 29.3165 117.685 29.3165C120.33 29.3165 122.115 27.0267 122.115 23.35Z" fill="white"/>
<path d="M129.731 23.35C129.731 20.6898 130.775 18.1386 132.634 16.2576C134.492 14.3766 137.013 13.3198 139.641 13.3198C142.27 13.3198 144.791 14.3766 146.649 16.2576C148.508 18.1386 149.552 20.6898 149.552 23.35C149.552 26.0102 148.508 28.5614 146.649 30.4424C144.791 32.3235 142.27 33.3802 139.641 33.3802C137.013 33.3802 134.492 32.3235 132.634 30.4424C130.775 28.5614 129.731 26.0102 129.731 23.35ZM144.007 23.35C144.007 19.4476 142.286 17.1577 139.61 17.1577C136.933 17.1577 135.276 19.3508 135.276 23.3178C135.276 27.2847 136.965 29.5423 139.673 29.5423C142.382 29.5423 144.007 27.3169 144.007 23.35Z" fill="white"/>
<path d="M153.79 27.8007V17.3835H150.986V13.2231H153.79V8.2886H159.335V13.2231H163V17.3835H159.335V27.2202C159.335 29.0908 160.196 29.7358 161.821 29.7358C162.214 29.7599 162.607 29.7599 163 29.7358V33.7995C162.135 33.9322 161.262 33.9969 160.387 33.993C155.862 33.8962 153.79 32.2514 153.79 27.8007Z" fill="white"/>
<path d="M61.4397 21.6084V33.8962H54.4289V0H61.4397" fill="#2997FF"/>
<path d="M75.2063 20.5441C77.0733 19.7533 78.6552 18.4012 79.7381 16.6708C80.821 14.9403 81.3526 12.915 81.261 10.8687C81.261 4.03143 76.7996 0 69.279 0H63.5429V5.54724H68.9603C69.6565 5.50273 70.354 5.61093 71.005 5.86445C71.6561 6.11796 72.2454 6.5108 72.7325 7.0161C73.2197 7.5214 73.5933 8.12724 73.8277 8.79217C74.0622 9.4571 74.152 10.1654 74.0909 10.8687C74.1576 11.5647 74.0734 12.2671 73.8442 12.9268C73.615 13.5865 73.2463 14.1876 72.7638 14.6881C72.2814 15.1887 71.6967 15.5767 71.0508 15.825C70.4049 16.0733 69.7132 16.1759 69.024 16.1257H63.5429V21.6084H68.068L74.4414 33.8962H82.3763L75.2063 20.5441Z" fill="#2997FF"/>
</svg>
