<svg width="82" height="34" viewBox="0 0 82 34" fill="none" xmlns="http://www.w3.org/2000/svg">
<path d="M14.5151 34H2.13391C0.955809 34 0 33.0574 0 31.8955C0 30.7337 0.955809 29.7911 2.13391 29.7911H14.5151C18.0493 29.7911 21.228 27.7086 22.6284 24.4642L29.8081 7.89168C31.8753 3.11283 36.6099 0 41.8558 0H51.7696C52.9477 0 53.9035 0.942612 53.9035 2.10444C53.9035 3.26627 52.9477 4.2089 51.7696 4.2089H41.8558C38.3215 4.2089 35.1429 6.29142 33.7425 9.53578L26.5628 26.1083C24.4955 30.9091 19.7609 34 14.5151 34Z" fill="white"/>
<path d="M22.1393 10.8072C21.3169 10.8072 20.5167 10.325 20.1833 9.53578C18.7829 6.29142 15.6042 4.2089 12.0699 4.2089H2.15612C0.978026 4.2089 0.0222168 3.26627 0.0222168 2.10444C0.0222168 0.942612 0.978026 0 2.15612 0H12.0699C17.3158 0 22.0504 3.09091 24.1176 7.89168C24.5844 8.96583 24.0732 10.1934 22.984 10.6538C22.7173 10.7415 22.4283 10.8072 22.1393 10.8072Z" fill="white"/>
<path d="M79.8661 34H69.9523C64.7064 34 59.9718 30.9091 57.9046 26.1083C57.4378 25.0342 57.949 23.8066 59.0382 23.3462C60.1274 22.8859 61.3722 23.3901 61.839 24.4642C63.2393 27.7086 66.418 29.7911 69.9523 29.7911H79.8661C81.0442 29.7911 82 30.7337 82 31.8956C82 33.0574 81.0442 34 79.8661 34Z" fill="white"/>
<path d="M42.6115 34H30.2304C29.0523 34 28.0965 33.0574 28.0965 31.8955C28.0965 30.7337 29.0523 29.7911 30.2304 29.7911H42.6115C46.1458 29.7911 49.3245 27.7086 50.7248 24.4642L57.9046 7.89168C59.9718 3.11283 64.7064 0 69.9523 0H79.8661C81.0442 0 82 0.942612 82 2.10444C82 3.26627 81.0442 4.2089 79.8661 4.2089H69.9523C66.418 4.2089 63.2394 6.29142 61.839 9.53578L54.6593 26.1083C52.5698 30.9091 47.8574 34 42.6115 34Z" fill="white"/>
<path d="M36.1209 20.2553C34.2982 20.2553 32.8089 18.7866 32.8089 16.989C32.8089 15.1915 34.2982 13.7227 36.1209 13.7227C37.9436 13.7227 39.4329 15.1915 39.4329 16.989C39.4329 18.7866 37.9436 20.2553 36.1209 20.2553Z" fill="white"/>
<path d="M47.4129 20.2553C45.5901 20.2553 44.1008 18.7866 44.1008 16.989C44.1008 15.1915 45.5901 13.7227 47.4129 13.7227C49.2356 13.7227 50.7248 15.1915 50.7248 16.989C50.7248 18.7866 49.2356 20.2553 47.4129 20.2553Z" fill="white"/>
</svg>
