<svg width="20" height="20" viewBox="0 0 20 20" fill="none" xmlns="http://www.w3.org/2000/svg">
<rect width="20" height="20" rx="10" fill="black"/>
<path d="M5.47818 13H3.36433C3.16319 13 3 12.8337 3 12.6286C3 12.4236 3.16319 12.2573 3.36433 12.2573H5.47818C6.0816 12.2573 6.62429 11.8897 6.86338 11.3172L8.08918 8.39265C8.44212 7.54932 9.25048 7 10.1461 7H11.8387C12.0398 7 12.203 7.16634 12.203 7.37137C12.203 7.5764 12.0398 7.74275 11.8387 7.74275H10.1461C9.5427 7.74275 9 8.11025 8.76091 8.68279L7.5351 11.6073C7.18216 12.4545 6.37382 13 5.47818 13Z" fill="white"/>
<path d="M6.78 8.90716C6.63958 8.90716 6.50296 8.82205 6.44603 8.68279C6.20694 8.11025 5.66425 7.74275 5.06083 7.74275H3.36823C3.16709 7.74275 3.00391 7.5764 3.00391 7.37137C3.00391 7.16634 3.16709 7 3.36823 7H5.06083C5.95647 7 6.76482 7.54545 7.11776 8.39265C7.19746 8.5822 7.11017 8.79884 6.92421 8.88008C6.87867 8.89555 6.82933 8.90716 6.78 8.90716Z" fill="white"/>
<path d="M16.6355 13H14.9429C14.0473 13 13.2389 12.4545 12.886 11.6073C12.8063 11.4178 12.8936 11.2012 13.0795 11.1199C13.2655 11.0387 13.478 11.1277 13.5577 11.3172C13.7968 11.8897 14.3395 12.2572 14.9429 12.2572H16.6355C16.8366 12.2572 16.9998 12.4236 16.9998 12.6286C16.9998 12.8336 16.8366 13 16.6355 13Z" fill="white"/>
<path d="M10.2751 13H8.1612C7.96006 13 7.79688 12.8337 7.79688 12.6286C7.79688 12.4236 7.96006 12.2573 8.1612 12.2573H10.2751C10.8785 12.2573 11.4212 11.8897 11.6602 11.3172L12.8861 8.39265C13.239 7.54932 14.0473 7 14.943 7H16.6356C16.8367 7 16.9999 7.16634 16.9999 7.37137C16.9999 7.5764 16.8367 7.74275 16.6356 7.74275H14.943C14.3396 7.74275 13.7969 8.11025 13.5578 8.68279L12.332 11.6073C11.9752 12.4545 11.1707 13 10.2751 13Z" fill="white"/>
<path d="M9.16703 10.5745C8.85583 10.5745 8.60156 10.3153 8.60156 9.99806C8.60156 9.68085 8.85583 9.42166 9.16703 9.42166C9.47822 9.42166 9.73249 9.68085 9.73249 9.99806C9.73249 10.3153 9.47822 10.5745 9.16703 10.5745Z" fill="white"/>
<path d="M11.0948 10.5745C10.7836 10.5745 10.5293 10.3153 10.5293 9.99806C10.5293 9.68085 10.7836 9.42166 11.0948 9.42166C11.406 9.42166 11.6602 9.68085 11.6602 9.99806C11.6602 10.3153 11.406 10.5745 11.0948 10.5745Z" fill="white"/>
</svg>
