<svg width="40" height="40" viewBox="0 0 40 40" fill="none" xmlns="http://www.w3.org/2000/svg">
<path d="M20 36.6666C17.6945 36.6666 15.5278 36.2288 13.5 35.3533C11.4722 34.4777 9.70834 33.2905 8.20834 31.7916C6.70834 30.2916 5.52112 28.5277 4.64668 26.4999C3.77223 24.4721 3.33445 22.3055 3.33334 19.9999C3.33334 17.6944 3.77112 15.5277 4.64668 13.4999C5.52223 11.4721 6.70946 9.70825 8.20834 8.20825C9.70834 6.70825 11.4722 5.52103 13.5 4.64659C15.5278 3.77214 17.6945 3.33436 20 3.33325C22.3056 3.33325 24.4722 3.77103 26.5 4.64659C28.5278 5.52214 30.2917 6.70936 31.7917 8.20825C33.2917 9.70825 34.4795 11.4721 35.355 13.4999C36.2306 15.5277 36.6678 17.6944 36.6667 19.9999C36.6667 22.3055 36.2289 24.4721 35.3533 26.4999C34.4778 28.5277 33.2906 30.2916 31.7917 31.7916C30.2917 33.2916 28.5278 34.4794 26.5 35.3549C24.4722 36.2305 22.3056 36.6677 20 36.6666ZM20 33.3333C23.7222 33.3333 26.875 32.0416 29.4583 29.4583C32.0417 26.8749 33.3333 23.7221 33.3333 19.9999C33.3333 16.2777 32.0417 13.1249 29.4583 10.5416C26.875 7.95825 23.7222 6.66659 20 6.66659C16.2778 6.66659 13.125 7.95825 10.5417 10.5416C7.95834 13.1249 6.66668 16.2777 6.66668 19.9999C6.66668 23.7221 7.95834 26.8749 10.5417 29.4583C13.125 32.0416 16.2778 33.3333 20 33.3333ZM20 29.9999C17.2222 29.9999 14.8611 29.0277 12.9167 27.0833C10.9722 25.1388 10 22.7777 10 19.9999C10 17.2221 10.9722 14.861 12.9167 12.9166C14.8611 10.9721 17.2222 9.99992 20 9.99992C22.7778 9.99992 25.1389 10.9721 27.0833 12.9166C29.0278 14.861 30 17.2221 30 19.9999C30 22.7777 29.0278 25.1388 27.0833 27.0833C25.1389 29.0277 22.7778 29.9999 20 29.9999ZM20 26.6666C21.8333 26.6666 23.4028 26.0138 24.7083 24.7083C26.0139 23.4027 26.6667 21.8333 26.6667 19.9999C26.6667 18.1666 26.0139 16.5971 24.7083 15.2916C23.4028 13.986 21.8333 13.3333 20 13.3333C18.1667 13.3333 16.5972 13.986 15.2917 15.2916C13.9861 16.5971 13.3333 18.1666 13.3333 19.9999C13.3333 21.8333 13.9861 23.4027 15.2917 24.7083C16.5972 26.0138 18.1667 26.6666 20 26.6666ZM20 23.3333C19.0833 23.3333 18.2983 23.0066 17.645 22.3533C16.9917 21.6999 16.6656 20.9155 16.6667 19.9999C16.6667 19.0833 16.9933 18.2983 17.6467 17.6449C18.3 16.9916 19.0845 16.6655 20 16.6666C20.9167 16.6666 21.7017 16.9933 22.355 17.6466C23.0083 18.2999 23.3345 19.0844 23.3333 19.9999C23.3333 20.9166 23.0067 21.7016 22.3533 22.3549C21.7 23.0083 20.9156 23.3344 20 23.3333Z" fill="black"/>
</svg>
