<svg width="40" height="40" viewBox="0 0 40 40" fill="none" xmlns="http://www.w3.org/2000/svg">
<path d="M32.5009 7.50164H32.4987L36.2208 8.24568C36.4206 8.28566 36.585 8.43224 36.6427 8.62991C36.6719 8.72594 36.6745 8.82807 36.6502 8.92545C36.626 9.02283 36.5758 9.11181 36.505 9.18295L33.4559 12.2346C33.091 12.5988 32.5966 12.8033 32.0812 12.8032H29.5539L23.2024 19.1575C23.3236 19.6151 23.3459 20.0933 23.2678 20.5601C23.1897 21.027 23.013 21.4719 22.7495 21.8651C22.486 22.2583 22.1418 22.5909 21.7397 22.8406C21.3376 23.0903 20.887 23.2515 20.4177 23.3134C19.9485 23.3753 19.4714 23.3365 19.0184 23.1995C18.5653 23.0625 18.1466 22.8306 17.7902 22.5191C17.4338 22.2076 17.1479 21.8238 16.9514 21.3931C16.755 20.9624 16.6526 20.4949 16.651 20.0215C16.6514 19.5104 16.7692 19.0063 16.9954 18.548C17.2216 18.0897 17.5501 17.6896 17.9556 17.3785C18.3611 17.0675 18.8327 16.8538 19.3339 16.7541C19.8351 16.6543 20.3525 16.6711 20.8461 16.8033L27.1999 10.4467V7.92141C27.1999 7.40613 27.4042 6.91085 27.7684 6.5466L30.8198 3.49492C30.8909 3.42414 30.9799 3.37395 31.0772 3.3497C31.1746 3.32546 31.2767 3.32805 31.3727 3.35722C31.5704 3.41497 31.717 3.57932 31.7569 3.77921L32.5009 7.50164Z" fill="black"/>
<path d="M6.65738 20.0214C6.65966 21.927 7.07055 23.8099 7.86232 25.5431C8.65409 27.2763 9.80833 28.8196 11.2472 30.0687C12.686 31.3179 14.376 32.244 16.2031 32.7844C18.0303 33.3248 19.952 33.4671 21.8388 33.2016C23.7256 32.9361 25.5335 32.269 27.1406 31.2453C28.7476 30.2216 30.1165 28.8651 31.1548 27.2673C32.1931 25.6695 32.8767 23.8677 33.1595 21.9832C33.4422 20.0988 33.3176 18.1756 32.794 16.3434C32.7205 16.1294 32.6913 15.9026 32.7082 15.6769C32.7252 15.4512 32.7878 15.2313 32.8924 15.0306C32.9971 14.8299 33.1414 14.6526 33.3167 14.5095C33.492 14.3663 33.6946 14.2604 33.9122 14.1981C34.1298 14.1358 34.3577 14.1184 34.5822 14.147C34.8067 14.1756 35.023 14.2496 35.218 14.3645C35.413 14.4794 35.5826 14.6327 35.7164 14.8152C35.8502 14.9978 35.9455 15.2056 35.9964 15.4261C37.0103 18.9743 36.8177 22.7586 35.4489 26.1855C34.0801 29.6123 31.6125 32.4878 28.4333 34.3608C25.2541 36.2337 21.5431 36.9982 17.8825 36.5342C14.222 36.0703 10.819 34.4042 8.2075 31.7973C5.59882 29.1861 3.93106 25.7825 3.46609 22.1208C3.00112 18.459 3.76525 14.7465 5.63852 11.5662C7.5118 8.3858 10.3881 5.91765 13.8159 4.54923C17.2437 3.18081 21.0288 2.98962 24.5771 4.00566C24.9995 4.12917 25.356 4.41492 25.5684 4.80046C25.7809 5.18599 25.8321 5.63996 25.7109 6.06316C25.5897 6.48636 25.306 6.84437 24.9216 7.05896C24.5373 7.27355 24.0837 7.32726 23.6599 7.20837C21.6758 6.63904 19.5865 6.53843 17.5569 6.91445C15.5273 7.29047 13.6127 8.13286 11.9642 9.37519C10.3157 10.6175 8.97821 12.2258 8.05729 14.0734C7.13636 15.9209 6.65713 17.9571 6.65738 20.0214Z" fill="black"/>
<path d="M13.3198 20.0216C13.3199 21.2356 13.6514 22.4265 14.2786 23.4659C14.9058 24.5053 15.8048 25.3537 16.8788 25.9196C17.9527 26.4855 19.1607 26.7475 20.3725 26.6772C21.5843 26.6069 22.754 26.2071 23.7553 25.5208C24.7564 24.8328 25.5505 23.8842 26.0515 22.7776C26.5525 21.6709 26.7415 20.4483 26.5979 19.242C26.5591 18.9493 26.599 18.6515 26.7135 18.3793C26.828 18.1071 27.013 17.8704 27.2494 17.6935C27.4858 17.5166 27.7651 17.4059 28.0585 17.3728C28.3519 17.3397 28.6488 17.3854 28.9187 17.5052C29.1885 17.6234 29.4221 17.8111 29.5957 18.0491C29.7693 18.2871 29.8767 18.5669 29.9069 18.86C30.1483 20.9213 29.7419 23.0067 28.7444 24.8266C27.7468 26.6464 26.2075 28.1106 24.3402 29.0159C22.4728 29.9211 20.3699 30.2226 18.3234 29.8783C16.277 29.534 14.3884 28.5612 12.9199 27.0948C11.4514 25.6284 10.4758 23.7411 10.1285 21.695C9.78114 19.6489 10.0793 17.5453 10.9817 15.6764C11.884 13.8074 13.3457 12.2658 15.1639 11.2654C16.9821 10.265 19.0666 9.85544 21.1281 10.0936C21.3488 10.1141 21.5633 10.1785 21.7588 10.2829C21.9544 10.3873 22.1271 10.5298 22.2669 10.7018C22.4067 10.8739 22.5107 11.0721 22.5729 11.285C22.6351 11.4978 22.6542 11.7208 22.6291 11.9411C22.604 12.1614 22.5351 12.3744 22.4266 12.5678C22.3181 12.7611 22.172 12.9308 21.9971 13.0669C21.8221 13.2031 21.6217 13.3029 21.4077 13.3606C21.1937 13.4183 20.9702 13.4327 20.7506 13.403C19.8171 13.2946 18.8712 13.3849 17.9751 13.668C17.079 13.9512 16.2529 14.4207 15.5511 15.0458C14.8493 15.6709 14.2877 16.4374 13.9031 17.2949C13.5186 18.1525 13.3197 19.0817 13.3198 20.0216Z" fill="black"/>
</svg>
