<svg width="32" height="32" viewBox="0 0 32 32" fill="none" xmlns="http://www.w3.org/2000/svg">
<path d="M23.7854 9.20376L20.9275 23.612C20.9275 23.612 20.5282 24.6114 19.4287 24.1318L12.834 19.0761L10.4359 17.9166L6.3993 16.5581C6.3993 16.5581 5.78 16.338 5.72005 15.8584C5.6601 15.3788 6.41909 15.1192 6.41909 15.1192L22.4664 8.82426C22.4664 8.82426 23.7854 8.24452 23.7854 9.20376Z" fill="#292929"/>
<path d="M12.3274 23.4508C12.3274 23.4508 12.135 23.4322 11.8951 22.6714C11.6553 21.9106 10.4359 17.9148 10.4359 17.9148L20.1284 11.7619C20.1284 11.7619 20.6877 11.422 20.6679 11.7619C20.6679 11.7619 20.768 11.8219 20.4683 12.1012C20.1685 12.3806 12.8544 18.9562 12.8544 18.9562" fill="#D3E6F2"/>
<path d="M15.3628 21.0144L12.7543 23.3927C12.7543 23.3927 12.5504 23.5473 12.3274 23.4526L12.8298 19.033" fill="#B6D0E5"/>
</svg>
