<svg width="40" height="40" viewBox="0 0 40 40" fill="none" xmlns="http://www.w3.org/2000/svg">
<g clip-path="url(#clip0_1504_190)">
<path d="M26.6667 11.6667C27.0749 11.6668 27.4689 11.8167 27.774 12.0879C28.079 12.3592 28.2739 12.733 28.3217 13.1384L28.3334 13.3334V29.3684L31.38 26.3217C31.6793 26.0197 32.0826 25.8434 32.5076 25.8289C32.9326 25.8145 33.347 25.9631 33.666 26.2442C33.985 26.5253 34.1845 26.9177 34.2237 27.3411C34.2629 27.7645 34.1387 28.1869 33.8767 28.5217L33.7367 28.6784L27.845 34.5717C27.558 34.8587 27.1762 35.0311 26.7712 35.0566C26.3661 35.082 25.9657 34.9588 25.645 34.7101L25.4884 34.5717L19.595 28.6784C19.2961 28.3785 19.1226 27.976 19.1096 27.5528C19.0967 27.1295 19.2454 26.7172 19.5254 26.3996C19.8055 26.082 20.1959 25.8829 20.6175 25.8427C21.039 25.8026 21.46 25.9244 21.795 26.1834L21.9534 26.3217L25 29.3667V13.3334C25 12.8914 25.1756 12.4675 25.4882 12.1549C25.8007 11.8423 26.2247 11.6667 26.6667 11.6667ZM14.5117 5.42841L20.4034 11.3217C20.5625 11.4755 20.6895 11.6594 20.7769 11.8627C20.8642 12.0661 20.9102 12.2848 20.9121 12.5061C20.914 12.7274 20.8719 12.9468 20.7881 13.1517C20.7043 13.3565 20.5805 13.5426 20.424 13.6991C20.2675 13.8556 20.0814 13.9793 19.8766 14.0631C19.6718 14.1469 19.4523 14.1891 19.231 14.1872C19.0097 14.1852 18.791 14.1393 18.5877 14.0519C18.3843 13.9646 18.2004 13.8376 18.0467 13.6784L15 10.6317V26.6651C15 27.1071 14.8244 27.531 14.5119 27.8436C14.1993 28.1561 13.7754 28.3317 13.3334 28.3317C12.8913 28.3317 12.4674 28.1561 12.1549 27.8436C11.8423 27.531 11.6667 27.1071 11.6667 26.6651V10.6334L8.6167 13.6784C8.30236 13.982 7.88135 14.15 7.44436 14.1462C7.00737 14.1424 6.58934 13.9671 6.28033 13.6581C5.97132 13.3491 5.79604 12.9311 5.79224 12.4941C5.78844 12.0571 5.95643 11.6361 6.26003 11.3217L12.1534 5.42841C12.4659 5.11596 12.8898 4.94043 13.3317 4.94043C13.7736 4.94043 14.1991 5.11596 14.5117 5.42841Z" fill="black"/>
</g>
<defs>
<clipPath id="clip0_1504_190">
<rect width="40" height="40" fill="white"/>
</clipPath>
</defs>
</svg>
