<svg width="40" height="40" viewBox="0 0 40 40" fill="none" xmlns="http://www.w3.org/2000/svg">
<path d="M20.2273 26.2878C21.0606 26.2878 21.7742 26.0923 22.3682 25.7014C22.9621 25.3105 23.2586 24.6979 23.2576 23.8636C23.2576 23.1312 22.948 22.5378 22.3288 22.0833C21.7096 21.6287 20.605 21.111 19.0151 20.5302C17.5252 19.9999 16.4333 19.3686 15.7394 18.6363C15.0454 17.904 14.698 16.9444 14.697 15.7575C14.697 14.7221 15.0571 13.7817 15.7773 12.9363C16.4975 12.0908 17.4757 11.5413 18.7121 11.2878V10.7196C18.7121 10.3661 18.8449 10.0565 19.1106 9.79083C19.3762 9.52517 19.6848 9.39285 20.0363 9.39386C20.3899 9.39386 20.6995 9.52669 20.9651 9.79234C21.2308 10.058 21.3631 10.3671 21.3621 10.7196V11.2878C22.0944 11.3383 22.7702 11.5848 23.3894 12.0272C24.0086 12.4696 24.5071 13.006 24.8848 13.6363C25.0616 13.9141 25.0742 14.211 24.9227 14.5272C24.7712 14.8434 24.5187 15.0641 24.1651 15.1893C23.8368 15.3156 23.5086 15.3282 23.1803 15.2272C22.852 15.1262 22.5868 14.9368 22.3848 14.659C22.1323 14.356 21.8166 14.11 21.4379 13.9211C21.0591 13.7322 20.6045 13.6373 20.0742 13.6363C19.1904 13.6363 18.5146 13.8257 18.047 14.2045C17.5793 14.5833 17.3464 15.1009 17.3485 15.7575C17.3485 16.4141 17.6389 16.9317 18.2197 17.3105C18.8005 17.6893 19.8485 18.1312 21.3636 18.6363C23.1818 19.2928 24.3939 20.0631 25 20.9469C25.606 21.8307 25.9091 22.8029 25.9091 23.8636C25.9091 24.5959 25.7828 25.2398 25.5303 25.7954C25.2778 26.3509 24.9429 26.8247 24.5257 27.2166C24.1096 27.6075 23.6237 27.9226 23.0682 28.162C22.5126 28.4014 21.9192 28.5848 21.2879 28.712V29.2802C21.2879 29.6338 21.1555 29.9434 20.8909 30.209C20.6262 30.4747 20.3166 30.607 19.9621 30.606C19.6086 30.606 19.2995 30.4732 19.0348 30.2075C18.7702 29.9418 18.6374 29.6327 18.6363 29.2802V28.6363C17.6768 28.4343 16.856 28.0555 16.1742 27.4999C15.4924 26.9444 14.9495 26.2373 14.5454 25.3787C14.3939 25.0252 14.4005 24.6843 14.5651 24.356C14.7298 24.0277 14.9884 23.8004 15.3409 23.6742C15.6692 23.5479 15.9975 23.554 16.3257 23.6923C16.654 23.8307 16.9065 24.0519 17.0833 24.356C17.4369 25.0125 17.8853 25.4984 18.4288 25.8136C18.9722 26.1287 19.5717 26.2868 20.2273 26.2878ZM20 36.6666C17.1717 36.6666 14.5707 36.0226 12.197 34.7348C9.82322 33.4469 7.87877 31.7297 6.36362 29.5833V32.1211C6.36362 32.5504 6.21817 32.9105 5.92726 33.2014C5.63635 33.4923 5.27675 33.6373 4.84847 33.6363C4.41918 33.6363 4.05908 33.4908 3.76817 33.1999C3.47726 32.909 3.33231 32.5494 3.33332 32.1211V26.0605C3.33332 25.6312 3.47877 25.2711 3.76968 24.9802C4.06059 24.6893 4.42019 24.5444 4.84847 24.5454H10.9091C11.3384 24.5454 11.6985 24.6908 11.9894 24.9817C12.2803 25.2726 12.4252 25.6322 12.4242 26.0605C12.4242 26.4898 12.2788 26.8499 11.9879 27.1408C11.697 27.4317 11.3374 27.5767 10.9091 27.5757H8.67423C9.88635 29.3939 11.4838 30.8585 13.4666 31.9696C15.4495 33.0807 17.6273 33.6363 20 33.6363C23.5606 33.6363 26.6227 32.4494 29.1863 30.0757C31.75 27.7019 33.2081 24.7853 33.5606 21.3257C33.6111 20.9216 33.7879 20.5994 34.0909 20.359C34.3939 20.1186 34.7475 19.9989 35.1515 19.9999C35.5808 19.9999 35.9469 20.1327 36.25 20.3984C36.553 20.6641 36.6793 20.9858 36.6288 21.3636C36.452 23.51 35.8964 25.511 34.9621 27.3666C34.0278 29.2221 32.8156 30.8383 31.3257 32.2151C29.8358 33.5918 28.1247 34.6777 26.1924 35.4726C24.2601 36.2676 22.1959 36.6656 20 36.6666ZM20 6.36356C16.4394 6.36356 13.3773 7.55042 10.8136 9.92416C8.24998 12.2979 6.7919 15.2146 6.43938 18.6742C6.38887 19.0782 6.21211 19.4004 5.90908 19.6408C5.60605 19.8812 5.25251 20.0009 4.84847 19.9999C4.41918 19.9999 4.05301 19.8671 3.74998 19.6014C3.44695 19.3358 3.32069 19.0141 3.3712 18.6363C3.54796 16.4898 4.10352 14.4888 5.03786 12.6333C5.97221 10.7777 7.18433 9.16154 8.67423 7.78477C10.1641 6.408 11.8752 5.32214 13.8076 4.52719C15.7399 3.73224 17.804 3.33426 20 3.33325C22.8283 3.33325 25.4293 3.97719 27.803 5.26507C30.1767 6.55295 32.1212 8.27012 33.6363 10.4166V7.87871C33.6363 7.44941 33.7818 7.08982 34.0727 6.79992C34.3636 6.51002 34.7232 6.36457 35.1515 6.36356C35.5808 6.36356 35.9409 6.50901 36.2318 6.79992C36.5227 7.09083 36.6677 7.45042 36.6666 7.87871V13.9393C36.6666 14.3686 36.5212 14.7287 36.2303 15.0196C35.9394 15.3105 35.5798 15.4555 35.1515 15.4545H29.0909C28.6616 15.4545 28.3015 15.309 28.0106 15.0181C27.7197 14.7272 27.5747 14.3676 27.5757 13.9393C27.5757 13.51 27.7212 13.1499 28.0121 12.859C28.303 12.5681 28.6626 12.4232 29.0909 12.4242H31.3257C30.1136 10.606 28.5161 9.14133 26.5333 8.03022C24.5505 6.91911 22.3727 6.36356 20 6.36356Z" fill="black"/>
</svg>
